<svg width="138" height="26" viewBox="0 0 138 26" fill="none" xmlns="http://www.w3.org/2000/svg">
<g clip-path="url(#clip0_19_95)">
<path d="M38.4306 5.68285H42.4895V7.73569H31.7656V5.68285H35.8885V3.75195H38.4306V5.68285ZM37.1703 15.5406C36.4653 15.5406 35.8245 15.4593 35.269 15.2763C34.7136 15.1137 34.2436 14.8698 33.8591 14.5853C33.4746 14.3007 33.1755 13.9552 32.9833 13.569C32.791 13.1828 32.6842 12.7763 32.6842 12.3495V11.6178C32.6842 11.191 32.791 10.7641 32.9833 10.3983C33.1755 10.0121 33.4746 9.66659 33.8591 9.38203C34.2436 9.09748 34.7136 8.85358 35.269 8.69098C35.8245 8.52838 36.444 8.42675 37.1703 8.42675C37.8752 8.42675 38.4947 8.50805 39.0501 8.69098C39.6056 8.85358 40.0755 9.09748 40.4601 9.38203C40.8446 9.66659 41.1436 10.0121 41.3359 10.3983C41.5282 10.7845 41.635 11.191 41.635 11.6178V12.3495C41.635 12.7763 41.5282 13.2032 41.3359 13.569C41.1436 13.9349 40.8446 14.3007 40.4601 14.5853C40.0755 14.8698 39.6056 15.1137 39.0501 15.2763C38.4947 15.4593 37.8539 15.5406 37.1703 15.5406ZM37.3198 19.504H46.8687V21.5772H34.7563V16.6178H37.3198V19.504ZM37.1703 10.317C36.8285 10.317 36.5294 10.3576 36.2731 10.4593C36.0167 10.5406 35.8031 10.6625 35.6108 10.8048C35.4399 10.9471 35.3118 11.0894 35.2263 11.2723C35.1409 11.4349 35.0981 11.5975 35.0981 11.7804V12.2479C35.0981 12.4105 35.1409 12.5731 35.2263 12.756C35.3118 12.9389 35.4399 13.0812 35.6108 13.2235C35.7817 13.3658 35.9953 13.4877 36.2731 13.569C36.5294 13.6503 36.8285 13.7113 37.1703 13.7113C37.5121 13.7113 37.8111 13.6707 38.0675 13.569C38.3238 13.4877 38.5375 13.3658 38.7297 13.2235C38.9006 13.0812 39.0288 12.9389 39.1142 12.756C39.1997 12.5934 39.2424 12.4308 39.2424 12.2479V11.7804C39.2424 11.6178 39.1997 11.4552 39.1142 11.2723C39.0288 11.1097 38.9006 10.9471 38.7297 10.8048C38.5588 10.6625 38.3452 10.5406 38.0675 10.4593C37.7898 10.3576 37.4907 10.317 37.1703 10.317ZM46.4415 9.05683H48.8981V11.1707H46.4415V16.8211H43.8994V3.91455H46.4415V9.05683ZM51.6325 15.5812H56.6526V12.878H49.3895V10.8454H61.1173C61.2669 10.2357 61.3737 9.64626 61.4164 9.03651C61.4591 8.42675 61.5018 7.89829 61.5018 7.45114V6.59748H51.6325V4.56496H64.0439V7.32919C64.0439 7.55277 64.044 7.79667 64.0226 8.08122C64.0012 8.36577 63.9799 8.67065 63.9371 8.97553C63.8944 9.30073 63.8731 9.60561 63.809 9.93081C63.7662 10.256 63.7022 10.5609 63.6594 10.8454H66.5647V12.878H59.1947V15.5812H64.2576V21.943H61.7155V17.6137H51.6325V15.5812ZM72.6316 13.1625C71.8839 13.1625 71.2003 13.0609 70.6235 12.817C70.0254 12.5934 69.534 12.3089 69.1068 11.943C68.6796 11.5772 68.3805 11.1503 68.1669 10.6828C67.9532 10.195 67.8464 9.70724 67.8464 9.17878V8.48772C67.8464 7.97959 67.9532 7.47146 68.1669 6.98366C68.3805 6.49586 68.7009 6.06903 69.1068 5.70317C69.5127 5.33732 70.0254 5.05277 70.6235 4.82919C71.2217 4.60561 71.8839 4.48366 72.6316 4.48366C73.3792 4.48366 74.0628 4.60561 74.6396 4.82919C75.2378 5.05277 75.7291 5.33732 76.1563 5.70317C76.5836 6.06903 76.8826 6.49586 77.0963 6.98366C77.3099 7.47146 77.4167 7.95927 77.4167 8.48772V9.17878C77.4167 9.70724 77.3099 10.195 77.0963 10.6828C76.8826 11.1707 76.5622 11.5772 76.1563 11.943C75.7505 12.3089 75.2378 12.5934 74.6396 12.817C74.0415 13.0609 73.3792 13.1625 72.6316 13.1625ZM72.6316 6.55683C72.247 6.55683 71.9266 6.61781 71.6275 6.71943C71.3285 6.84138 71.0935 6.98366 70.8799 7.18691C70.6662 7.39016 70.5167 7.59342 70.4099 7.83732C70.3031 8.08122 70.239 8.3048 70.239 8.5487V9.11781C70.239 9.36171 70.3031 9.60561 70.4099 9.82919C70.5167 10.0731 70.6662 10.2763 70.8799 10.4796C71.0721 10.6625 71.3285 10.8251 71.6275 10.9471C71.9266 11.069 72.2684 11.1097 72.6316 11.1097C73.0161 11.1097 73.3365 11.0487 73.6356 10.9471C73.9347 10.8251 74.1697 10.6828 74.3833 10.4796C74.5755 10.2967 74.7464 10.0731 74.8532 9.82919C74.96 9.58529 75.0241 9.36171 75.0241 9.11781V8.5487C75.0241 8.3048 74.96 8.0609 74.8532 7.83732C74.7464 7.59342 74.5969 7.39016 74.3833 7.18691C74.191 7.00399 73.9347 6.84138 73.6356 6.71943C73.3365 6.61781 72.9947 6.55683 72.6316 6.55683ZM70.9012 14.6869H82.8V21.7398H70.9012V14.6869ZM73.4006 19.7276H80.2792V16.6991H73.4006V19.7276ZM82.8 13.8739H80.2579V3.91455H82.8V13.8739ZM90.5972 10.5609C90.5331 10.7235 90.4049 10.8861 90.234 11.069C90.0631 11.252 89.7641 11.5365 89.3368 11.882C88.8669 12.2682 88.3755 12.6544 87.8842 13.0406C87.3715 13.4267 86.8374 13.8333 86.282 14.2398L84.7653 12.4511C85.3635 12.0446 85.8975 11.6585 86.3675 11.2723C86.8588 10.9064 87.3288 10.4999 87.8201 10.0934C88.226 9.72756 88.5678 9.32106 88.8241 8.85358C89.0805 8.3861 89.1873 7.83732 89.1873 7.20724V4.64626H91.7721V7.14626C91.7721 7.47147 91.7935 7.75602 91.8148 7.99992C91.8576 8.24382 91.9217 8.48772 92.0071 8.69098C92.0926 8.89423 92.2421 9.11781 92.413 9.32106C92.5839 9.52431 92.8189 9.72756 93.0752 9.93081C93.4597 10.2357 93.9083 10.5609 94.4424 10.9267C94.9551 11.2926 95.4678 11.6381 95.9805 11.9633L94.5706 13.6503C94.1006 13.3454 93.652 13.0406 93.2248 12.7357C92.7975 12.4308 92.3916 12.1463 92.0071 11.8617C91.6653 11.5975 91.3449 11.3739 91.0672 11.1503C90.8322 10.9064 90.6613 10.7235 90.5972 10.5609ZM94.2501 22.2682C93.3956 22.2682 92.6052 22.1869 91.9003 22.0243C91.1953 21.8617 90.5972 21.6178 90.0845 21.3129C89.5718 21.008 89.1873 20.6422 88.9096 20.2154C88.6319 19.7885 88.5037 19.3211 88.5037 18.8129V17.9999C88.5037 17.4918 88.6319 17.0243 88.9096 16.5975C89.1873 16.1707 89.5718 15.8048 90.0845 15.4999C90.5972 15.195 91.1953 14.9511 91.9003 14.7885C92.6052 14.6259 93.3956 14.5446 94.2501 14.5446C95.1046 14.5446 95.895 14.6259 96.6 14.7885C97.3049 14.9511 97.9031 15.195 98.4158 15.4999C98.9285 15.8048 99.313 16.1707 99.5907 16.5975C99.8684 17.0243 99.9966 17.4918 99.9966 17.9999V18.8129C99.9966 19.3211 99.8684 19.7885 99.5907 20.2154C99.313 20.6422 98.9285 21.008 98.4158 21.3129C97.9031 21.6178 97.3049 21.8617 96.6 22.0243C95.895 22.1869 95.1046 22.2682 94.2501 22.2682ZM94.2501 16.4959C93.7374 16.4959 93.2888 16.5568 92.883 16.6585C92.4771 16.7601 92.1353 16.882 91.8576 17.0446C91.5799 17.2072 91.3662 17.3902 91.2167 17.5731C91.0672 17.756 91.0031 17.9593 91.0031 18.1422V18.6503C91.0031 18.8333 91.0672 19.0365 91.2167 19.2194C91.3662 19.4024 91.5799 19.5853 91.8576 19.7479C92.1353 19.9105 92.4771 20.0324 92.883 20.1341C93.2888 20.2357 93.7374 20.2967 94.2501 20.2967C94.7628 20.2967 95.2114 20.2357 95.6173 20.1341C96.0232 20.0324 96.365 19.9105 96.6427 19.7479C96.9204 19.5853 97.134 19.4024 97.2836 19.2194C97.4331 19.0365 97.4972 18.8333 97.4972 18.6503V18.1422C97.4972 17.9593 97.4331 17.756 97.2836 17.5731C97.134 17.3902 96.9204 17.2072 96.6427 17.0446C96.365 16.882 96.0232 16.7601 95.6173 16.6585C95.2114 16.5568 94.7628 16.4959 94.2501 16.4959ZM99.9325 7.97959H102.389V10.0934H99.9325V14.4633H97.3904V3.91455H99.9325V7.97959ZM103.778 4.99179H113.455V7.04464H109.973V8.2235C109.973 8.44707 109.994 8.67065 110.015 8.85358C110.058 9.03651 110.122 9.23976 110.208 9.40236C110.315 9.58529 110.443 9.74789 110.614 9.93081C110.785 10.0934 110.998 10.2763 111.276 10.4796C111.703 10.7845 112.152 11.1097 112.643 11.4146C113.134 11.7398 113.626 12.0446 114.138 12.3495L112.793 14.0568C111.895 13.4877 111.062 12.9593 110.315 12.4308C109.887 12.1463 109.546 11.882 109.289 11.6788C109.033 11.4755 108.883 11.3129 108.841 11.2113H108.819C108.776 11.3333 108.627 11.5162 108.349 11.7601C108.072 12.004 107.708 12.3089 107.238 12.6544C106.811 12.9796 106.363 13.3251 105.914 13.6503C105.465 13.9755 104.974 14.3007 104.483 14.6463L102.987 12.878C103.628 12.4715 104.248 12.0446 104.803 11.6381C105.38 11.2113 105.871 10.8251 106.298 10.4593C106.64 10.1747 106.918 9.82919 107.11 9.46333C107.302 9.09748 107.409 8.67065 107.409 8.20317V7.02431H103.756V4.99179H103.778ZM112.643 22.2682C111.81 22.2682 111.041 22.1869 110.336 22.0446C109.631 21.882 109.011 21.6585 108.477 21.3739C107.943 21.0893 107.537 20.7235 107.238 20.2967C106.939 19.8698 106.79 19.4024 106.79 18.8536V18.0202C106.79 17.4918 106.939 17.004 107.238 16.5772C107.537 16.1503 107.943 15.8048 108.477 15.4999C109.011 15.2154 109.61 14.9918 110.336 14.8292C111.041 14.6666 111.81 14.6056 112.643 14.6056C113.476 14.6056 114.245 14.6869 114.95 14.8292C115.655 14.9918 116.275 15.2154 116.809 15.4999C117.343 15.7845 117.749 16.1503 118.048 16.5772C118.347 17.004 118.496 17.4715 118.496 18.0202V18.8536C118.496 19.382 118.347 19.8698 118.048 20.2967C117.749 20.7235 117.343 21.069 116.809 21.3739C116.275 21.6585 115.676 21.882 114.95 22.0446C114.245 22.2072 113.476 22.2682 112.643 22.2682ZM112.643 16.5772C112.194 16.5772 111.767 16.6178 111.383 16.6991C110.977 16.7804 110.614 16.9024 110.315 17.0446C110.015 17.1869 109.759 17.3698 109.567 17.5528C109.375 17.756 109.289 17.9593 109.289 18.2032V18.6707C109.289 18.8942 109.375 19.1178 109.567 19.3211C109.759 19.5243 109.994 19.6869 110.315 19.8292C110.614 19.9715 110.977 20.0934 111.383 20.1747C111.789 20.256 112.216 20.2967 112.643 20.2967C113.07 20.2967 113.519 20.256 113.903 20.1747C114.309 20.0934 114.672 19.9715 114.971 19.8292C115.271 19.6869 115.527 19.504 115.719 19.3211C115.911 19.1178 115.997 18.9146 115.997 18.6707V18.2032C115.997 17.9796 115.911 17.756 115.719 17.5528C115.527 17.3495 115.292 17.1869 114.971 17.0446C114.672 16.9024 114.309 16.7804 113.903 16.6991C113.498 16.6178 113.092 16.5772 112.643 16.5772ZM115.911 10.3576H112.899V8.3048H115.911V3.91455H118.454V14.5243H115.911V10.3576ZM130.566 14.5243V17.4308H137.872V19.4837H120.697V17.4308H128.002V14.5243H123.046V5.13407H125.589V7.99992H133.044V5.13407H135.586V14.5243H130.566ZM133.023 12.4918V10.0528H125.567V12.4918H133.023Z" fill="#2D3D50"/>
<path d="M5.6824 12.8375L0.363207 21.5367C-0.66218 23.2236 0.619553 25.3375 2.67033 25.3375H22.3236C24.3744 25.3375 25.6561 23.2236 24.6307 21.5367L19.2688 12.7358L12.561 14.1789L5.6824 12.8375Z" fill="#2876CB"/>
<path d="M8.95078 3.60986V7.45133L0.427245 21.496L0.405883 21.5367C0.320434 21.679 0.256347 21.8009 0.213623 21.9635C0.192261 21.9838 0.192261 22.0245 0.170898 22.0651V22.0855C0.170898 22.0448 0.192261 22.0245 0.213623 22.0042C0.256347 21.8619 0.341796 21.7196 0.405883 21.5773L0.427245 21.5367L0.555419 21.3334L3.11889 17.1058L5.68235 12.8782L5.81053 12.6749C6.83591 11.496 8.63034 11.1708 10.0616 11.9432L11.7065 12.8375C11.9842 12.9798 12.2406 13.1221 12.4969 13.244C12.7533 13.1221 13.0096 12.9798 13.2873 12.8375L14.9322 11.9432C16.4062 11.1302 18.2647 11.5164 19.2901 12.7765L21.8749 17.0448L24.3957 21.1912L24.6307 21.557C24.7375 21.7196 24.8229 21.8822 24.887 22.0651C24.9084 22.1058 24.9084 22.1464 24.9297 22.1668L24.9938 22.4717C24.9938 22.5123 24.9938 22.5326 25.0152 22.5733V23.0001V22.9798V22.8172V22.6749V22.553C25.0152 22.5123 25.0152 22.492 24.9938 22.4513L24.9297 22.1465C24.9297 22.1058 24.9084 22.0651 24.887 22.0448C24.8229 21.8619 24.7375 21.6993 24.6307 21.5367L16.0217 7.39035V3.60986H8.95078Z" fill="url(#paint0_linear_19_95)"/>
<path d="M12.4969 13.2233C12.2406 13.1014 11.9842 12.9591 11.7065 12.8168L10.0616 11.9225C8.63036 11.1298 6.83593 11.4754 5.81055 12.6542L5.68237 12.8575V12.8778C5.74646 13.3046 6.45141 16.2721 12.4969 13.2233Z" fill="#1976D2"/>
<path d="M13.5864 17.0652L15.8508 16.1709C17.9016 15.3579 20.465 15.7441 21.8536 17.0042L19.2687 12.7359C18.2647 11.4758 16.4062 11.0896 14.9108 11.9026L13.266 12.7969C12.9882 12.9392 12.7319 13.0815 12.4756 13.2034C6.4514 16.2522 5.74645 13.2847 5.661 12.8376V12.8172L3.09753 17.0449V17.0855C3.20435 17.5733 4.25109 20.7847 13.5864 17.0652Z" fill="#42A5F5"/>
<path d="M13.8855 21.252L16.7694 20.3577C19.3542 19.5447 22.6012 19.9309 24.3743 21.1707L21.8536 17.0244C20.465 15.7439 17.9016 15.3577 15.8508 16.191L13.5864 17.0853C4.25109 20.8049 3.20434 17.5935 3.11889 17.1463V17.1057L0.55542 21.3333C0.683593 21.8008 2.07214 24.9512 13.8855 21.252Z" fill="#2C8DE3"/>
<path d="M24.9938 22.866V22.7254V22.6049C24.9938 22.5646 24.9938 22.5445 24.9724 22.5043L24.9081 22.203C24.9073 22.1657 24.8921 22.13 24.8654 22.1026C24.8016 21.9259 24.7154 21.7572 24.6086 21.6004L24.3732 21.2388C22.5972 20.0132 19.3445 19.6317 16.7554 20.4352L13.8662 21.3191C2.03259 24.9754 0.641691 21.8815 0.491942 21.3793L0.363555 21.5803L0.342192 21.6205C0.256743 21.761 0.192443 21.8815 0.149505 22.0423C0.128143 22.0624 0.128143 22.1026 0.106781 22.1228C0.0854184 22.203 0.0640562 22.2632 0.0426939 22.3437V22.3837C0.0213317 22.4642 0.0213317 22.5244 -0.000244141 22.6049V23.087C-0.000244141 23.1673 0.0211181 23.2276 0.0424803 23.3079V23.3482C0.0638425 23.4083 0.0638425 23.4687 0.0852048 23.5289L0.149505 23.7097C0.149505 23.7299 0.170867 23.7699 0.19223 23.79C0.213592 23.8703 0.25653 23.9307 0.299254 23.9908L0.363341 24.1116C0.384917 24.1516 0.406279 24.1717 0.427641 24.212C0.470366 24.2721 0.513304 24.3124 0.556028 24.3726C0.598753 24.4128 0.620329 24.453 0.663053 24.4931L0.748716 24.5736L0.855527 24.674C0.898465 24.7142 0.941403 24.7343 0.984127 24.7744C1.09094 24.8549 1.1766 24.915 1.28363 24.9754C1.43338 25.0557 1.6047 25.136 1.77581 25.1762C1.81854 25.1963 1.86126 25.1963 1.88284 25.2165C1.98965 25.2364 2.09689 25.2766 2.20391 25.2766C2.24664 25.2766 2.268 25.2766 2.31072 25.2967H22.4472C22.4899 25.2967 22.5326 25.2967 22.5756 25.2766C22.6183 25.2766 22.6397 25.2766 22.6826 25.2565C22.7894 25.2364 22.8964 25.2165 22.9821 25.1963C23.0248 25.1963 23.0678 25.1762 23.1105 25.1561C23.1746 25.136 23.2175 25.1158 23.2816 25.0959C23.5085 25.0188 23.7188 24.903 23.9022 24.7543C23.9451 24.7142 23.9878 24.6941 24.0306 24.6538C24.0735 24.6337 24.0949 24.5937 24.1376 24.5534L24.2232 24.4732C24.2446 24.453 24.266 24.4329 24.266 24.4128C24.2873 24.3725 24.3303 24.3526 24.3516 24.3124C24.3944 24.2721 24.4157 24.2321 24.4373 24.1919C24.4587 24.1717 24.48 24.1315 24.5014 24.1116C24.5227 24.0915 24.5441 24.0512 24.5441 24.0311C24.5657 23.991 24.6084 23.9307 24.6298 23.8904C24.6511 23.8504 24.6725 23.79 24.6941 23.7498C24.7154 23.7097 24.7368 23.6494 24.7582 23.6093V23.5892C24.7795 23.549 24.7795 23.5087 24.8009 23.4687V23.4486C24.8225 23.3681 24.8438 23.2878 24.8438 23.2075V23.1874V23.1071C24.8438 23.0669 24.8438 23.0266 24.8652 22.9866C24.9936 22.9665 24.9938 22.9262 24.9938 22.866Z" fill="#2876CB"/>
<path d="M8.28857 3.60957H16.7267C17.5811 3.60957 18.2861 2.93884 18.2861 2.12583C18.2861 1.31282 17.5811 0.64209 16.7267 0.64209H8.28857C7.43408 0.64209 6.72913 1.31282 6.72913 2.12583C6.72913 2.93884 7.43408 3.60957 8.28857 3.60957Z" fill="#C2DEEE"/>
</g>
<defs>
<linearGradient id="paint0_linear_19_95" x1="12.5612" y1="3.27531" x2="12.5612" y2="11.2613" gradientUnits="userSpaceOnUse">
<stop stop-color="#A6CFE2"/>
<stop offset="0.64" stop-color="#C2DEEE"/>
</linearGradient>
<clipPath id="clip0_19_95">
<rect width="138" height="25" fill="white" transform="translate(0 0.5)"/>
</clipPath>
</defs>
</svg>
