<svg width="148" height="15" viewBox="0 0 148 15" fill="none" xmlns="http://www.w3.org/2000/svg">
<path d="M10.7694 7.53312V0.0931168H12.0814V7.53312H10.7694ZM8.49743 7.24512C6.81743 6.73312 5.48943 5.59712 4.83343 4.12512C4.20943 5.72512 2.88143 6.95712 1.13743 7.54912L0.513435 6.50912C2.67343 5.83712 4.14543 4.06112 4.14543 2.10912V1.94912H0.865435V0.893117H8.73744V1.94912H5.48943V2.10912C5.48943 3.94912 6.97743 5.58112 9.10544 6.22112L8.49743 7.24512ZM12.5774 14.2691H2.83343V10.6851H10.8014V9.24512H2.80143V8.22112H12.0974V11.6611H4.12943V13.2291H12.5774V14.2691ZM14.9282 2.46112V1.48512H18.4002V0.0291166H19.7122V1.48512H23.1682V2.46112H14.9282ZM27.8722 6.17312H25.7602V11.3091H24.4482V0.077117H25.7602V5.08512H27.8722V6.17312ZM23.6962 9.03712C20.6562 9.59712 17.2322 9.66112 14.7202 9.66112L14.5762 8.60512C15.7282 8.60512 16.9922 8.58912 18.4002 8.54112V7.45312C16.7362 7.27712 15.6962 6.49312 15.6962 5.26112C15.6962 3.90112 17.0402 3.06912 19.0562 3.06912C21.0562 3.06912 22.4002 3.90112 22.4002 5.26112C22.4002 6.49312 21.3762 7.27712 19.7122 7.45312V8.47712C21.0562 8.41312 22.3682 8.30112 23.6002 8.09312L23.6962 9.03712ZM16.9442 5.26112C16.9442 6.07712 17.7602 6.54112 19.0562 6.54112C20.3362 6.54112 21.1522 6.07712 21.1522 5.26112C21.1522 4.49312 20.3362 3.99712 19.0562 3.99712C17.7602 3.99712 16.9442 4.49312 16.9442 5.26112ZM26.2722 13.0371V14.1091H16.6882V10.5731H18.0002V13.0371H26.2722ZM29.6149 7.53312V1.16512H36.1589V2.41312H39.4549V0.0931168H40.7829V8.57312H39.4549V6.30112H36.1589V7.53312H29.6149ZM30.9109 2.22112V6.49312H34.8789V2.22112H30.9109ZM36.1589 5.24512H39.4549V3.46912H36.1589V5.24512ZM36.0309 9.00512C38.9909 9.00512 40.8149 9.98112 40.8149 11.7091C40.8149 13.4211 38.9909 14.4131 36.0309 14.4131C33.0869 14.4131 31.2629 13.4211 31.2629 11.7091C31.2629 9.98112 33.0869 9.00512 36.0309 9.00512ZM36.0309 13.3891C38.2229 13.3891 39.5189 12.7971 39.5189 11.7091C39.5189 10.6211 38.2229 10.0291 36.0309 10.0291C33.8389 10.0291 32.5749 10.6211 32.5749 11.7091C32.5749 12.7971 33.8389 13.3891 36.0309 13.3891ZM49.7577 5.29312C46.6057 5.29312 44.7177 4.42912 44.7177 2.81312C44.7177 1.19712 46.6057 0.317117 49.7577 0.317117C52.9097 0.317117 54.7977 1.19712 54.7977 2.81312C54.7977 4.42912 52.9097 5.29312 49.7577 5.29312ZM49.7577 1.30912C47.3737 1.30912 46.0617 1.85312 46.0617 2.81312C46.0617 3.77312 47.3737 4.31712 49.7577 4.31712C52.1417 4.31712 53.4537 3.77312 53.4537 2.81312C53.4537 1.85312 52.1417 1.30912 49.7577 1.30912ZM56.2537 7.32512H43.2617V6.26912H56.2537V7.32512ZM55.0217 13.2451V14.2691H44.8777V10.8291H53.2937V9.54912H44.8297V8.55712H54.5897V11.7891H46.1577V13.2451H55.0217ZM72.5506 7.78912H71.2386V0.0931168H72.5506V7.78912ZM64.8386 0.765117C67.0146 0.765117 68.5986 2.09312 68.5986 4.06112C68.5986 6.04512 67.0146 7.37312 64.8386 7.37312C62.6786 7.37312 61.1106 6.04512 61.1106 4.06112C61.1106 2.09312 62.6786 0.765117 64.8386 0.765117ZM64.8386 1.85312C63.4146 1.85312 62.3906 2.76512 62.3906 4.06112C62.3906 5.38912 63.4146 6.28512 64.8386 6.28512C66.3106 6.28512 67.3186 5.40512 67.3186 4.06112C67.3186 2.76512 66.2946 1.85312 64.8386 1.85312ZM64.5986 10.2531H71.2546V8.49312H72.5506V14.2371H63.3026V8.49312H64.5986V10.2531ZM71.2546 13.1811V11.2771H64.5986V13.1811H71.2546ZM86.9013 8.90912H85.5893V6.25312H82.7893V5.19712H85.5893V3.27712H82.7893V2.20512H85.5893V0.0931168H86.9013V8.90912ZM82.8053 7.90112C81.0453 8.20512 79.5893 8.25312 76.7253 8.25312H75.7013V3.99712H80.5653V2.01312H75.6533V0.941116H81.8453V5.00512H76.9813V7.18112C79.6373 7.18112 81.0293 7.10112 82.6773 6.84512L82.8053 7.90112ZM86.9013 9.67712V14.4451H85.5893V10.7491H77.3013V9.67712H86.9013ZM101.572 14.4131H100.308V7.19712H98.4681V13.7251H97.2361V0.397117H98.4681V6.12512H100.308V0.0611162H101.572V14.4131ZM96.5161 2.52512V3.59712H89.3961V2.52512H92.3081V0.493116H93.6041V2.52512H96.5161ZM92.9641 4.55712C94.7401 4.55712 96.0361 5.90112 96.0361 7.82112C96.0361 9.77312 94.7401 11.1011 92.9641 11.1011C91.1881 11.1011 89.8921 9.77312 89.8921 7.82112C89.8921 5.90112 91.1881 4.55712 92.9641 4.55712ZM92.9641 10.0131C94.0681 10.0131 94.8681 9.10112 94.8681 7.82112C94.8681 6.57312 94.0681 5.66112 92.9641 5.66112C91.8121 5.66112 91.0601 6.54112 91.0601 7.82112C91.0601 9.10112 91.8601 10.0131 92.9641 10.0131ZM104.515 6.01312C107.011 5.62912 109.491 3.99712 109.491 2.10912V2.02912H104.963V0.973117H115.443V2.02912H110.947V2.10912C110.947 3.99712 113.427 5.62912 115.955 6.01312L115.443 7.05312C113.219 6.66912 111.075 5.48512 110.227 3.77312C109.331 5.48512 107.251 6.66912 105.011 7.05312L104.515 6.01312ZM110.851 9.32512V14.4291H109.539V9.32512H103.747V8.25312H116.707L116.723 9.32512H110.851ZM130.242 14.4291H128.994V0.077117H130.242V14.4291ZM127.314 0.397117V13.7251H126.082V6.31712H123.714V5.22912H126.082V0.397117H127.314ZM122.306 4.12512C122.306 6.42912 123.394 8.86112 125.266 10.0131L124.514 11.0371C123.154 10.2051 122.194 8.68512 121.682 6.94112C121.17 8.87712 120.13 10.4611 118.706 11.3571L117.89 10.3651C119.858 9.21312 121.042 6.65312 121.042 4.17312V1.43712H122.306V4.12512ZM145.392 12.5891H132.352V11.5011H135.552V7.62912C134.336 7.00512 133.632 5.96512 133.632 4.66912C133.632 2.44512 135.808 0.989117 138.848 0.989117C141.904 0.989117 144.064 2.44512 144.064 4.66912C144.064 5.96512 143.392 6.98912 142.176 7.61312V11.5011H145.392V12.5891ZM138.848 2.01312C136.544 2.01312 134.896 3.06912 134.896 4.66912C134.896 6.26912 136.544 7.32512 138.848 7.32512C141.152 7.32512 142.816 6.26912 142.816 4.66912C142.816 3.06912 141.152 2.01312 138.848 2.01312ZM140.864 11.5011V8.12512C140.176 8.26912 139.504 8.34912 138.848 8.34912C138.144 8.34912 137.488 8.26912 136.864 8.12512V11.5011H140.864ZM147.967 11.9651V13.4691H146.511V11.9651H147.967Z" fill="#BBBBBB"/>
</svg>
