<svg width="48" height="49" viewBox="0 0 48 49" fill="none" xmlns="http://www.w3.org/2000/svg">
<rect y="0.850098" width="48" height="48" rx="24" fill="#007BE9"/>
<g clip-path="url(#clip0_17_1069)">
<path d="M22.6052 14C24.2036 13.9994 25.7706 14.4437 27.1308 15.2833C28.491 16.1229 29.5906 17.3245 30.3065 18.7536C31.0225 20.1827 31.3264 21.783 31.1844 23.3751C31.0424 24.9672 30.4599 26.4883 29.5023 27.7681L34.9952 33.2596L33.2561 35L27.762 29.5085C26.6696 30.3243 25.3991 30.869 24.0551 31.0979C22.711 31.3267 21.3319 31.2331 20.0311 30.8247C18.7303 30.4163 17.5451 29.7049 16.573 28.7489C15.6009 27.793 14.8697 26.6199 14.4396 25.3261C14.0095 24.0323 13.8928 22.6549 14.0991 21.3072C14.3054 19.9595 14.8288 18.6801 15.6262 17.5742C16.4236 16.4684 17.4723 15.5677 18.6858 14.9463C19.8993 14.3249 21.2418 14.0006 22.6052 14ZM22.6052 16.4609C20.974 16.4609 19.4096 17.1089 18.2562 18.2623C17.1028 19.4158 16.4548 20.9801 16.4548 22.6113C16.4548 24.2425 17.1028 25.8069 18.2562 26.9603C19.4096 28.1137 20.974 28.7617 22.6052 28.7617C24.2363 28.7617 25.8007 28.1137 26.9541 26.9603C28.1075 25.8069 28.7555 24.2425 28.7555 22.6113C28.7555 20.9801 28.1075 19.4158 26.9541 18.2623C25.8007 17.1089 24.2363 16.4609 22.6052 16.4609Z" fill="white"/>
</g>
<defs>
<clipPath id="clip0_17_1069">
<rect width="21" height="21" fill="white" transform="translate(14 13.8501)"/>
</clipPath>
</defs>
</svg>
